<svg id="svg" version="1.1" xmlns="http://www.w3.org/2000/svg" xmlns:xlink="http://www.w3.org/1999/xlink" width="400" height="400" viewBox="0, 0, 400,400"><g id="svgg"><path id="path0" d="M0.000 200.000 L 0.000 400.000 200.000 400.000 L 400.000 400.000 400.000 200.000 L 400.000 0.000 200.000 0.000 L 0.000 0.000 0.000 200.000 M212.624 89.247 C 214.371 90.248,219.580 93.282,224.200 95.990 C 228.820 98.698,236.560 103.199,241.400 105.993 C 246.240 108.786,258.120 115.653,267.800 121.251 C 277.480 126.850,288.079 132.954,291.353 134.816 C 298.161 138.686,300.095 140.489,300.758 143.581 C 301.308 146.142,300.918 247.417,300.348 250.040 C 299.647 253.274,298.450 254.232,286.911 260.796 C 281.020 264.147,273.770 268.278,270.800 269.976 C 267.830 271.674,263.870 273.937,262.000 275.006 C 260.130 276.075,256.530 278.144,254.000 279.603 C 251.470 281.063,244.990 284.739,239.600 287.772 C 234.210 290.805,228.540 294.014,227.000 294.903 C 225.460 295.792,222.220 297.633,219.800 298.995 C 217.380 300.357,214.301 302.123,212.958 302.921 C 207.921 305.911,206.440 305.758,199.382 301.517 C 196.972 300.069,192.300 297.355,189.000 295.486 C 176.648 288.493,161.928 280.073,158.497 278.038 C 157.233 277.289,154.220 275.570,151.800 274.218 C 141.951 268.714,142.006 268.782,142.002 262.231 C 141.998 255.954,143.694 255.845,152.800 261.541 C 153.790 262.160,157.570 264.348,161.200 266.403 C 164.830 268.458,168.250 270.446,168.800 270.821 C 169.697 271.432,174.533 274.172,183.200 278.976 C 186.591 280.856,189.800 282.711,195.719 286.215 C 202.944 290.491,206.696 292.400,207.876 292.400 C 208.986 292.400,213.114 290.103,226.000 282.314 C 228.750 280.652,235.950 276.371,242.000 272.800 C 248.050 269.230,256.420 264.281,260.600 261.802 C 264.780 259.323,272.193 254.932,277.074 252.044 C 286.785 246.297,287.426 245.738,287.805 242.679 C 287.947 241.536,287.914 220.128,287.731 195.106 L 287.400 149.613 286.000 148.230 C 285.230 147.469,281.540 145.102,277.800 142.970 C 271.151 139.179,253.809 129.106,234.600 117.877 C 222.381 110.734,214.661 106.235,210.565 103.869 C 206.212 101.355,206.926 101.203,197.200 106.714 C 184.147 114.110,180.681 116.065,177.200 117.997 C 173.688 119.945,170.114 121.957,151.364 132.541 C 141.632 138.035,140.926 137.763,141.260 128.655 C 141.463 123.153,140.338 124.159,156.800 114.752 C 167.312 108.745,176.668 103.300,189.288 95.845 C 206.556 85.644,206.406 85.687,212.624 89.247 M208.854 132.326 C 209.637 132.725,214.836 137.683,220.408 143.344 C 231.923 155.045,232.049 155.123,232.428 150.800 C 232.858 145.885,233.327 145.600,240.994 145.600 C 250.578 145.600,250.167 144.956,250.306 160.200 C 250.437 174.629,249.641 172.412,257.714 180.819 C 264.848 188.249,265.771 189.608,265.151 191.771 C 264.427 194.294,263.730 194.580,257.754 194.800 C 250.116 195.082,250.957 192.136,250.706 219.473 C 250.476 244.526,250.483 244.449,247.938 246.591 C 245.620 248.541,246.174 248.521,205.748 248.149 C 162.682 247.753,166.067 248.059,164.000 244.380 L 163.000 242.600 162.795 219.600 C 162.682 206.950,162.444 196.301,162.266 195.937 C 161.736 194.849,160.046 194.452,155.377 194.319 C 149.333 194.146,147.305 192.717,148.400 189.399 C 149.028 187.497,201.624 133.173,203.800 132.179 C 205.462 131.421,207.176 131.470,208.854 132.326 M122.954 134.052 C 125.155 135.055,125.715 145.571,123.656 147.236 C 122.545 148.134,114.431 148.362,112.639 147.545 C 110.497 146.569,109.833 136.531,111.782 134.582 C 112.889 133.475,120.858 133.097,122.954 134.052 M141.236 161.544 C 142.536 163.151,142.372 172.711,141.023 173.979 C 138.973 175.905,129.202 175.109,128.381 172.950 C 127.803 171.429,127.897 162.694,128.500 161.868 C 129.807 160.082,139.847 159.827,141.236 161.544 M104.456 161.566 C 105.562 162.462,105.893 171.681,104.884 173.483 C 103.886 175.267,93.780 175.406,92.364 173.656 C 91.192 172.207,91.220 162.780,92.400 161.600 C 93.581 160.419,103.008 160.392,104.456 161.566 M123.656 177.964 C 124.763 178.860,125.275 186.039,124.431 188.853 C 123.440 192.163,112.193 192.193,111.323 188.888 C 110.572 186.036,111.003 178.727,111.968 177.945 C 113.353 176.824,122.264 176.838,123.656 177.964 M202.400 190.137 C 197.496 192.627,196.480 199.797,200.399 204.260 C 201.994 206.077,201.976 206.379,199.560 218.303 C 197.251 229.697,197.282 230.380,200.109 230.417 C 200.819 230.427,203.560 230.496,206.200 230.571 C 216.558 230.866,216.211 231.484,213.368 217.800 C 211.005 206.428,211.004 206.388,212.994 203.781 C 218.886 196.061,210.925 185.807,202.400 190.137 M104.325 196.816 C 105.467 197.879,105.662 206.763,104.577 208.311 C 103.644 209.643,93.761 209.682,92.562 208.358 C 91.284 206.947,91.427 197.834,92.744 196.766 C 94.199 195.586,103.046 195.624,104.325 196.816 M140.856 196.766 C 142.343 197.973,142.313 207.656,140.818 208.867 C 139.243 210.141,130.271 209.825,129.164 208.456 C 128.369 207.473,127.995 198.416,128.706 197.366 C 129.784 195.773,139.066 195.314,140.856 196.766 M123.571 213.773 C 124.669 214.767,124.830 223.608,123.777 225.111 C 122.846 226.441,113.359 226.480,112.162 225.159 C 111.095 223.981,110.792 215.683,111.762 214.202 C 112.768 212.666,121.977 212.332,123.571 213.773 M140.900 232.887 C 141.977 234.120,141.928 242.707,140.835 244.056 C 139.012 246.309,129.520 245.360,128.768 242.850 C 128.171 240.858,128.429 233.410,129.118 232.719 C 130.342 231.493,139.800 231.628,140.900 232.887 " stroke="none" fill="#042c5d" fill-rule="evenodd"></path><path id="path1" d="M203.000 87.932 C 202.120 88.349,195.950 91.910,189.288 95.845 C 176.668 103.300,167.312 108.745,156.800 114.752 C 140.338 124.159,141.463 123.153,141.260 128.655 C 140.926 137.763,141.632 138.035,151.364 132.541 C 170.114 121.957,173.688 119.945,177.200 117.997 C 180.681 116.065,184.147 114.110,197.200 106.714 C 206.926 101.203,206.212 101.355,210.565 103.869 C 214.661 106.235,222.381 110.734,234.600 117.877 C 253.809 129.106,271.151 139.179,277.800 142.970 C 281.540 145.102,285.230 147.469,286.000 148.230 L 287.400 149.613 287.731 195.106 C 287.914 220.128,287.947 241.536,287.805 242.679 C 287.426 245.738,286.785 246.297,277.074 252.044 C 272.193 254.932,264.780 259.323,260.600 261.802 C 256.420 264.281,248.050 269.230,242.000 272.800 C 235.950 276.371,228.750 280.652,226.000 282.314 C 213.114 290.103,208.986 292.400,207.876 292.400 C 206.696 292.400,202.944 290.491,195.719 286.215 C 189.800 282.711,186.591 280.856,183.200 278.976 C 174.533 274.172,169.697 271.432,168.800 270.821 C 168.250 270.446,164.830 268.458,161.200 266.403 C 157.570 264.348,153.790 262.160,152.800 261.541 C 143.694 255.845,141.998 255.954,142.002 262.231 C 142.006 268.782,141.951 268.714,151.800 274.218 C 154.220 275.570,157.233 277.289,158.497 278.038 C 161.928 280.073,176.648 288.493,189.000 295.486 C 192.300 297.355,196.972 300.069,199.382 301.517 C 206.440 305.758,207.921 305.911,212.958 302.921 C 214.301 302.123,217.380 300.357,219.800 298.995 C 222.220 297.633,225.460 295.792,227.000 294.903 C 228.540 294.014,234.210 290.805,239.600 287.772 C 244.990 284.739,251.470 281.063,254.000 279.603 C 256.530 278.144,260.130 276.075,262.000 275.006 C 263.870 273.937,267.830 271.674,270.800 269.976 C 273.770 268.278,281.020 264.147,286.911 260.796 C 298.450 254.232,299.647 253.274,300.348 250.040 C 300.918 247.417,301.308 146.142,300.758 143.581 C 300.095 140.489,298.161 138.686,291.353 134.816 C 288.079 132.954,277.480 126.850,267.800 121.251 C 258.120 115.653,246.240 108.786,241.400 105.993 C 236.560 103.199,228.820 98.698,224.200 95.990 C 209.010 87.086,209.714 87.442,207.024 87.301 C 205.266 87.209,204.160 87.382,203.000 87.932 M111.782 134.582 C 109.833 136.531,110.497 146.569,112.639 147.545 C 114.431 148.362,122.545 148.134,123.656 147.236 C 125.715 145.571,125.155 135.055,122.954 134.052 C 120.858 133.097,112.889 133.475,111.782 134.582 M130.200 160.810 C 128.234 161.423,128.000 162.107,128.000 167.250 C 128.000 174.639,128.144 174.790,135.206 174.853 C 141.992 174.914,142.000 174.906,142.000 167.775 C 142.000 160.584,142.037 160.628,135.936 160.518 C 133.441 160.473,130.860 160.604,130.200 160.810 M92.400 161.600 C 91.220 162.780,91.192 172.207,92.364 173.656 C 93.780 175.406,103.886 175.267,104.884 173.483 C 105.893 171.681,105.562 162.462,104.456 161.566 C 103.008 160.392,93.581 160.419,92.400 161.600 M111.968 177.945 C 111.003 178.727,110.572 186.036,111.323 188.888 C 112.193 192.193,123.440 192.163,124.431 188.853 C 125.275 186.039,124.763 178.860,123.656 177.964 C 122.264 176.838,113.353 176.824,111.968 177.945 M92.744 196.766 C 91.427 197.834,91.284 206.947,92.562 208.358 C 93.761 209.682,103.644 209.643,104.577 208.311 C 105.662 206.763,105.467 197.879,104.325 196.816 C 103.046 195.624,94.199 195.586,92.744 196.766 M129.800 196.478 C 128.495 197.218,128.413 197.583,128.406 202.656 C 128.398 209.408,128.351 209.358,134.881 209.531 C 141.868 209.715,141.800 209.782,141.800 202.802 C 141.800 195.931,141.862 195.995,135.256 196.012 C 132.545 196.019,130.266 196.214,129.800 196.478 M114.897 213.077 C 111.362 213.305,111.090 213.803,111.265 219.742 C 111.452 226.074,111.372 226.000,118.039 226.000 C 124.560 226.000,124.400 226.167,124.400 219.373 C 124.400 212.710,124.060 212.485,114.897 213.077 M133.518 231.993 C 128.618 232.254,128.635 232.237,128.460 237.297 C 128.208 244.622,128.748 245.183,135.935 245.067 C 141.504 244.977,141.600 244.864,141.600 238.400 C 141.600 231.734,141.396 231.572,133.518 231.993 " stroke="none" fill="#ffffff" fill-rule="evenodd"></path><path id="path2" d="M203.800 132.179 C 201.624 133.173,149.028 187.497,148.400 189.399 C 147.305 192.717,149.333 194.146,155.377 194.319 C 160.046 194.452,161.736 194.849,162.266 195.937 C 162.444 196.301,162.682 206.950,162.795 219.600 L 163.000 242.600 164.000 244.380 C 166.067 248.059,162.682 247.753,205.748 248.149 C 246.174 248.521,245.620 248.541,247.938 246.591 C 250.483 244.449,250.476 244.526,250.706 219.473 C 250.957 192.136,250.116 195.082,257.754 194.800 C 263.730 194.580,264.427 194.294,265.151 191.771 C 265.771 189.608,264.848 188.249,257.714 180.819 C 249.641 172.412,250.437 174.629,250.306 160.200 C 250.167 144.956,250.578 145.600,240.994 145.600 C 233.327 145.600,232.858 145.885,232.428 150.800 C 232.049 155.123,231.923 155.045,220.408 143.344 C 208.573 131.320,207.404 130.533,203.800 132.179 M209.713 189.741 C 215.097 192.004,216.711 198.911,212.994 203.781 C 211.004 206.388,211.005 206.428,213.368 217.800 C 216.211 231.484,216.558 230.866,206.200 230.571 C 203.560 230.496,200.819 230.427,200.109 230.417 C 197.282 230.380,197.251 229.697,199.560 218.303 C 201.976 206.379,201.994 206.077,200.399 204.260 C 194.138 197.129,201.179 186.154,209.713 189.741 " stroke="none" fill="#00a6ff" fill-rule="evenodd"></path></g></svg>